# xmcd
#
# Track frame offsets:
#	150
#	14647
#	32978
#	56837
#	76367
#	102411
#	124056
#
# Disc length: 1863 seconds
#
# Revision: 1
# Processed by: cddbd v1.5.2PL0 Copyright (c) Steve Scherf et al.
# Submitted via: EasyCDDAExtractor 10.2.0.1
#
DISCID=5d074507
DTITLE=Elika - monocrose
DYEAR=2011
DGENRE=Pop
TTITLE0=Intro
TTITLE1=봄날의 밤
TTITLE2=Monochrose
TTITLE3=천일지련
TTITLE4=Tiny Pieces
TTITLE5=웃어줘
TTITLE6=For my...
EXTD=
EXTT0=
EXTT1=
EXTT2=
EXTT3=
EXTT4=
EXTT5=
EXTT6=
PLAYORDER=
